<?xml version="1.0" encoding="UTF-8" standalone="no"?>
<!-- Created with Inkscape (http://www.inkscape.org/) -->

<svg
   width="30mm"
   height="30mm"
   viewBox="0 0 30.000003 30.000003"
   version="1.1"
   id="svg5"
   xmlns="http://www.w3.org/2000/svg"
   xmlns:svg="http://www.w3.org/2000/svg">
  <defs
     id="defs2" />
  <rect
     style="display:inline;fill:#ffffff;stroke:#ffffff;stroke-width:0.012"
     id="rect1"
     width="29.987999"
     height="29.987999"
     x="0.0060000028"
     y="0.0060000089" />
  <g
     id="layer1"
     style="display:inline;opacity:1">
    <path
       style="fill:none;stroke:#000000;stroke-width:0.365623;stroke-linecap:butt;stroke-linejoin:miter;stroke-miterlimit:4;stroke-dasharray:none;stroke-opacity:1"
       d="M 9.5064649,0.79740606 16.709131,4.9441468"
       id="path54" />
    <path
       style="fill:none;stroke:#000000;stroke-width:0.365623;stroke-linecap:butt;stroke-linejoin:miter;stroke-miterlimit:4;stroke-dasharray:none;stroke-opacity:1"
       d="m 14.249706,6.9680799 2.09175,-3.6564318"
       id="path54-5" />
    <path
       style="fill:none;stroke:#000000;stroke-width:0.633748;stroke-linecap:butt;stroke-linejoin:miter;stroke-miterlimit:4;stroke-dasharray:none;stroke-opacity:1"
       d="M 7.9466467,17.921364 14.249706,6.9680799"
       id="path54-5-3" />
    <path
       style="fill:none;stroke:#000000;stroke-width:0.633748;stroke-linecap:butt;stroke-linejoin:miter;stroke-miterlimit:4;stroke-dasharray:none;stroke-opacity:1"
       d="M 15.87808,23.048524 22.192644,12.139253"
       id="path54-5-3-4" />
    <path
       style="fill:none;stroke:#000000;stroke-width:0.633748;stroke-linecap:butt;stroke-linejoin:miter;stroke-miterlimit:4;stroke-dasharray:none;stroke-opacity:1"
       d="M 10.681286,7.8674673 22.727604,14.728033"
       id="path54-5-3-7" />
    <path
       style="fill:none;stroke:#000000;stroke-width:0.633748;stroke-linecap:butt;stroke-linejoin:miter;stroke-miterlimit:4;stroke-dasharray:none;stroke-opacity:1"
       d="M 17.791278,22.504837 7.7913577,16.78504"
       id="path54-5-3-5" />
    <path
       style="fill:none;stroke:#000000;stroke-width:0.365623;stroke-linecap:butt;stroke-linejoin:miter;stroke-miterlimit:4;stroke-dasharray:none;stroke-opacity:1"
       d="M 8.0508868,6.3904763 11.533303,0.28175204"
       id="path54-5-0" />
    <path
       style="fill:none;stroke:#000000;stroke-width:0.365623;stroke-linecap:butt;stroke-linejoin:miter;stroke-miterlimit:4;stroke-dasharray:none;stroke-opacity:1"
       d="m 8.0508868,6.3904763 2.6303992,1.476991"
       id="path54-5-6" />
    <path
       style="opacity:0.65;fill:none;stroke:#000000;stroke-width:0.365623;stroke-linecap:butt;stroke-linejoin:miter;stroke-miterlimit:4;stroke-dasharray:none;stroke-opacity:1"
       d="M 22.192644,12.139253 24.736115,7.7707485"
       id="path54-5-66" />
    <path
       style="opacity:0.65;fill:none;stroke:#000000;stroke-width:0.365623;stroke-linecap:butt;stroke-linejoin:miter;stroke-miterlimit:4;stroke-dasharray:none;stroke-opacity:1"
       d="m 25.657138,17.349384 3.749991,-6.440745"
       id="path54-5-8" />
    <path
       style="opacity:0.65;fill:none;stroke:#000000;stroke-width:0.365623;stroke-linecap:butt;stroke-linejoin:miter;stroke-miterlimit:4;stroke-dasharray:none;stroke-opacity:1"
       d="M 26.632442,17.013529 22.727604,14.728033"
       id="path54-5-32" />
    <path
       style="opacity:0.65;fill:none;stroke:#000000;stroke-width:0.365623;stroke-linecap:butt;stroke-linejoin:miter;stroke-miterlimit:4;stroke-dasharray:none;stroke-opacity:1"
       d="m 22.592674,8.3119628 7.02247,4.0250862"
       id="path54-5-668" />
    <path
       style="opacity:0.45;fill:none;stroke:#000000;stroke-width:0.365623;stroke-linecap:butt;stroke-linejoin:miter;stroke-miterlimit:4;stroke-dasharray:none;stroke-opacity:1"
       d="M 18.713413,29.466813 22.04429,23.682135"
       id="path54-5-4" />
    <path
       style="opacity:0.45;fill:none;stroke:#000000;stroke-width:0.365623;stroke-linecap:butt;stroke-linejoin:miter;stroke-miterlimit:4;stroke-dasharray:none;stroke-opacity:1"
       d="m 13.835244,26.620945 5.489701,3.137792"
       id="path54-5-7" />
    <path
       style="opacity:0.45;fill:none;stroke:#000000;stroke-width:0.365623;stroke-linecap:butt;stroke-linejoin:miter;stroke-miterlimit:4;stroke-dasharray:none;stroke-opacity:1"
       d="M 13.835244,26.620945 15.87808,23.048524"
       id="path54-5-2" />
    <path
       style="opacity:0.45;fill:none;stroke:#000000;stroke-width:0.365623;stroke-linecap:butt;stroke-linejoin:miter;stroke-miterlimit:4;stroke-dasharray:none;stroke-opacity:1"
       d="M 22.168877,25.062512 17.791278,22.504837"
       id="path54-5-06" />
    <path
       style="opacity:0.25;fill:none;stroke:#000000;stroke-width:0.365623;stroke-linecap:butt;stroke-linejoin:miter;stroke-miterlimit:4;stroke-dasharray:none;stroke-opacity:1"
       d="M 5.6755494,21.885831 7.9466467,17.921364"
       id="path54-5-9" />
    <path
       style="opacity:0.25;fill:none;stroke:#000000;stroke-width:0.365623;stroke-linecap:butt;stroke-linejoin:miter;stroke-miterlimit:4;stroke-dasharray:none;stroke-opacity:1"
       d="M 0.7762756,19.139985 4.2864999,13.047272"
       id="path54-5-39" />
    <path
       style="opacity:0.25;fill:none;stroke:#000000;stroke-width:0.365623;stroke-linecap:butt;stroke-linejoin:miter;stroke-miterlimit:4;stroke-dasharray:none;stroke-opacity:1"
       d="M 0.7762756,19.139985 6.326673,22.298089"
       id="path54-5-09" />
    <path
       style="opacity:0.25;fill:none;stroke:#000000;stroke-width:0.365623;stroke-linecap:butt;stroke-linejoin:miter;stroke-miterlimit:4;stroke-dasharray:none;stroke-opacity:1"
       d="M 2.2409603,13.626937 7.7913577,16.78504"
       id="path54-5-1" />
  </g>
  <g
     id="layer2"
     style="display:inline">
    <path
       style="display:inline;fill:none;stroke:#000000;stroke-width:0.0731246;stroke-linecap:butt;stroke-linejoin:miter;stroke-miterlimit:4;stroke-dasharray:none;stroke-opacity:1"
       d="M 9.5064649,0.79740606 29.615144,12.337049"
       id="path54-0-6" />
    <path
       style="display:inline;fill:none;stroke:#000000;stroke-width:0.0731246;stroke-linecap:butt;stroke-linejoin:miter;stroke-miterlimit:4;stroke-dasharray:none;stroke-opacity:1"
       d="M 0.7762756,19.139985 19.324945,29.758737"
       id="path54-0-9-5" />
    <path
       style="display:inline;fill:none;stroke:#000000;stroke-width:0.0731246;stroke-linecap:butt;stroke-linejoin:miter;stroke-miterlimit:4;stroke-dasharray:none;stroke-opacity:1"
       d="M 2.2409603,13.626937 22.168877,25.062512"
       id="path54-0-0-5" />
    <path
       style="display:inline;fill:none;stroke:#000000;stroke-width:0.0731246;stroke-linecap:butt;stroke-linejoin:miter;stroke-miterlimit:4;stroke-dasharray:none;stroke-opacity:1"
       d="M 8.0508868,6.3904763 26.632442,17.013529"
       id="path54-0-2-7" />
    <path
       style="display:inline;fill:none;stroke:#000000;stroke-width:0.0731246;stroke-linecap:butt;stroke-linejoin:miter;stroke-miterlimit:4;stroke-dasharray:none;stroke-opacity:1"
       d="M 0.7762756,19.139985 11.533303,0.28175204"
       id="path54-0-5-8" />
    <path
       style="display:inline;fill:none;stroke:#000000;stroke-width:0.0731246;stroke-linecap:butt;stroke-linejoin:miter;stroke-miterlimit:4;stroke-dasharray:none;stroke-opacity:1"
       d="M 5.6755494,21.885831 16.341456,3.3116481"
       id="path54-0-5-0-1" />
    <path
       style="display:inline;fill:none;stroke:#000000;stroke-width:0.0731246;stroke-linecap:butt;stroke-linejoin:miter;stroke-miterlimit:4;stroke-dasharray:none;stroke-opacity:1"
       d="M 13.835244,26.620945 24.736115,7.7707485"
       id="path54-0-5-3-2" />
    <path
       style="display:inline;fill:none;stroke:#000000;stroke-width:0.0731246;stroke-linecap:butt;stroke-linejoin:miter;stroke-miterlimit:4;stroke-dasharray:none;stroke-opacity:1"
       d="M 18.713413,29.466813 29.407129,10.908639"
       id="path54-0-5-4-6" />
  </g>
  <g
     id="layer3"
     style="display:inline">
    <ellipse
       style="opacity:1;fill:#000000;fill-opacity:1;stroke:none;stroke-width:0.125961;stroke-linejoin:bevel;stroke-miterlimit:4;stroke-dasharray:none;stroke-opacity:1;paint-order:markers stroke fill"
       id="path12521"
       cx="10.292591"
       cy="10.680767"
       transform="matrix(0.86663533,0.49894208,-0.50315891,0.86419391,0,0)"
       rx="0.48512596"
       ry="0.48988548" />
    <ellipse
       style="display:inline;fill:#000000;fill-opacity:1;stroke:none;stroke-width:0.125961;stroke-linejoin:bevel;stroke-miterlimit:4;stroke-dasharray:none;stroke-opacity:1;paint-order:markers stroke fill"
       id="path12521-5"
       cx="10.319913"
       cy="16.154182"
       transform="matrix(0.86663533,0.49894208,-0.50315891,0.86419391,0,0)"
       rx="0.48512596"
       ry="0.48988548" />
    <ellipse
       style="display:inline;fill:#000000;fill-opacity:1;stroke:none;stroke-width:0.125961;stroke-linejoin:bevel;stroke-miterlimit:4;stroke-dasharray:none;stroke-opacity:1;paint-order:markers stroke fill"
       id="path12521-4"
       cx="15.93245"
       cy="16.129541"
       transform="matrix(0.86663533,0.49894208,-0.50315891,0.86419391,0,0)"
       rx="0.48512596"
       ry="0.48988548" />
    <ellipse
       style="display:inline;fill:#000000;fill-opacity:1;stroke:none;stroke-width:0.125961;stroke-linejoin:bevel;stroke-miterlimit:4;stroke-dasharray:none;stroke-opacity:1;paint-order:markers stroke fill"
       id="path12521-9"
       cx="25.400555"
       cy="16.178823"
       transform="matrix(0.86663533,0.49894208,-0.50315891,0.86419391,0,0)"
       rx="0.48512596"
       ry="0.48988548" />
    <ellipse
       style="display:inline;fill:#000000;fill-opacity:1;stroke:none;stroke-width:0.125961;stroke-linejoin:bevel;stroke-miterlimit:4;stroke-dasharray:none;stroke-opacity:1;paint-order:markers stroke fill"
       id="path12521-7"
       cx="31.013086"
       cy="16.154182"
       transform="matrix(0.86663533,0.49894208,-0.50315891,0.86419391,0,0)"
       rx="0.48512596"
       ry="0.48988548" />
    <ellipse
       style="display:inline;fill:#000000;fill-opacity:1;stroke:none;stroke-width:0.125961;stroke-linejoin:bevel;stroke-miterlimit:4;stroke-dasharray:none;stroke-opacity:1;paint-order:markers stroke fill"
       id="path12521-54"
       cx="31.013086"
       cy="10.659075"
       transform="matrix(0.86663533,0.49894208,-0.50315891,0.86419391,0,0)"
       rx="0.48512596"
       ry="0.48988548" />
    <ellipse
       style="display:inline;fill:#000000;fill-opacity:1;stroke:none;stroke-width:0.125961;stroke-linejoin:bevel;stroke-miterlimit:4;stroke-dasharray:none;stroke-opacity:1;paint-order:markers stroke fill"
       id="path12521-0"
       cx="30.915483"
       cy="1.4184246"
       transform="matrix(0.86663533,0.49894208,-0.50315891,0.86419391,0,0)"
       rx="0.48512596"
       ry="0.48988548" />
    <ellipse
       style="display:inline;fill:#000000;fill-opacity:1;stroke:none;stroke-width:0.125961;stroke-linejoin:bevel;stroke-miterlimit:4;stroke-dasharray:none;stroke-opacity:1;paint-order:markers stroke fill"
       id="path12521-548"
       cx="30.891073"
       cy="-4.0766821"
       transform="matrix(0.86663533,0.49894208,-0.50315891,0.86419391,0,0)"
       rx="0.48512596"
       ry="0.48988548" />
    <ellipse
       style="display:inline;fill:#000000;fill-opacity:1;stroke:none;stroke-width:0.125961;stroke-linejoin:bevel;stroke-miterlimit:4;stroke-dasharray:none;stroke-opacity:1;paint-order:markers stroke fill"
       id="path12521-53"
       cx="25.327343"
       cy="-4.0520406"
       transform="matrix(0.86663533,0.49894208,-0.50315891,0.86419391,0,0)"
       rx="0.48512596"
       ry="0.48988548" />
    <ellipse
       style="display:inline;fill:#000000;fill-opacity:1;stroke:none;stroke-width:0.125961;stroke-linejoin:bevel;stroke-miterlimit:4;stroke-dasharray:none;stroke-opacity:1;paint-order:markers stroke fill"
       id="path12521-2"
       cx="15.786034"
       cy="-4.0520406"
       transform="matrix(0.86663533,0.49894208,-0.50315891,0.86419391,0,0)"
       rx="0.48512596"
       ry="0.48988548" />
    <ellipse
       style="display:inline;fill:#000000;fill-opacity:1;stroke:none;stroke-width:0.125961;stroke-linejoin:bevel;stroke-miterlimit:4;stroke-dasharray:none;stroke-opacity:1;paint-order:markers stroke fill"
       id="path12521-06"
       cx="10.149097"
       cy="-4.0520415"
       transform="matrix(0.86663533,0.49894208,-0.50315891,0.86419391,0,0)"
       rx="0.48512596"
       ry="0.48988548" />
    <ellipse
       style="display:inline;fill:#000000;fill-opacity:1;stroke:none;stroke-width:0.125961;stroke-linejoin:bevel;stroke-miterlimit:4;stroke-dasharray:none;stroke-opacity:1;paint-order:markers stroke fill"
       id="path12521-6"
       cx="10.1735"
       cy="1.5169916"
       transform="matrix(0.86663533,0.49894208,-0.50315891,0.86419391,0,0)"
       rx="0.48512596"
       ry="0.48988548" />
  </g>
  <g
     id="layer5"
     style="display:inline">
    <path
       id="path13439"
       style="fill:#000000;fill-opacity:1;stroke:none;stroke-width:0.0121874;stroke-linecap:butt;stroke-linejoin:miter;stroke-miterlimit:4;stroke-dasharray:none;stroke-opacity:1"
       d="m 16.497206,12.4145 c -0.472438,0.556333 -1.0774,0.372446 -1.604716,0.471241 -0.387051,0.07252 -0.862415,0.277652 -1.091313,0.657425 -0.22517,0.373585 -0.274444,0.80932 -0.0588,0.974654 0.215981,0.165595 0.635002,-0.02656 0.457307,-0.34226 -0.109839,-0.195146 -0.07521,-0.377463 0.07353,-0.605854 0.146216,-0.224503 0.686464,-0.307363 1.236772,-0.330793 -0.790191,0.904221 -2.158119,3.257397 -2.736284,3.796112 -0.174949,0.163012 -0.240212,0.310384 -0.471524,0.401554 -0.23131,0.09117 -0.275728,-0.120128 -0.556136,-0.07219 -0.204155,0.05802 -0.270719,0.205123 -0.24092,0.414552 0.02646,0.20966 0.460147,0.218496 0.67005,0.214588 0.562583,-0.01045 1.557526,-1.40753 1.954558,-2.045416 l 1.095282,-0.02975 c 0,0 -0.05448,0.455847 -0.156287,0.822718 -0.08319,0.299779 -0.191605,0.511443 -0.191605,0.511443 0,0 0.426934,-0.0794 0.628457,-0.09987 0.239325,-0.02429 1.022937,0.05042 1.022937,0.05042 l 0.0552,-0.418655 c -0.02906,0.0762 -0.506223,0.14805 -0.772676,0.05086 0.06406,-1.031412 0.30951,-2.42137 0.477068,-3.62471 0.06365,-0.239979 0.09649,-0.452231 0.209107,-0.796106 z m -0.977633,1.437227 -0.24289,1.650063 -0.875358,0.02101 z" />
  </g>
</svg>
